<!DOCTYPE svg PUBLIC "-//W3C//DTD SVG 20010904//EN" "http://www.w3.org/TR/2001/REC-SVG-20010904/DTD/svg10.dtd">
<svg version="1.0" xmlns="http://www.w3.org/2000/svg" width="831px" height="800px" viewBox="0 0 8310 8000" preserveAspectRatio="xMidYMid meet">
<g id="layer101" fill="#010101" stroke="none">
<path d="M5869 5360 c-255 -29 -614 -180 -799 -335 -119 -100 -210 -251 -235 -392 -8 -43 -14 -134 -14 -203 -1 -453 164 -823 506 -1139 132 -121 195 -165 338 -235 260 -128 603 -197 820 -166 92 13 211 64 262 112 45 42 22 67 -44 49 -21 -6 -83 -16 -137 -21 -380 -37 -842 150 -1111 450 -161 181 -240 341 -289 588 -51 256 -29 480 58 594 79 103 296 220 540 290 95 27 128 32 226 32 107 1 121 -1 205 -33 213 -80 309 -191 405 -470 26 -75 51 -144 55 -155 7 -17 3 -18 -51 -13 -32 2 -192 10 -355 18 -271 11 -302 11 -364 -4 -222 -55 -248 -203 -51 -294 57 -26 70 -28 221 -31 169 -4 363 10 480 34 106 22 210 76 238 124 12 22 27 40 34 40 27 0 82 63 114 132 33 71 34 76 34 198 -1 118 -3 130 -35 210 -84 214 -227 380 -424 492 -76 43 -238 104 -314 118 -81 15 -228 20 -313 10z"/>
</g>
<g id="layer102" fill="#2f2f2f" stroke="none">
<path d="M5872 5360 c-75 -8 -216 -39 -209 -46 2 -3 35 3 73 11 38 9 138 18 224 21 128 4 170 2 245 -14 102 -22 124 -21 44 2 -112 32 -237 40 -377 26z"/>
<path d="M5532 5276 c-83 -30 -143 -59 -82 -41 61 19 204 74 190 74 -8 0 -57 -15 -108 -33z"/>
<path d="M6417 5261 c272 -131 469 -368 520 -629 14 -71 15 -99 6 -171 -6 -47 -14 -95 -17 -106 -4 -11 2 -4 11 15 14 28 18 61 17 160 0 118 -2 130 -34 210 -75 192 -193 339 -365 457 -41 28 -164 90 -195 97 -14 3 12 -12 57 -33z"/>
<path d="M5331 5190 c-222 -108 -363 -234 -443 -397 -40 -84 -68 -200 -66 -278 0 -28 3 -19 9 30 14 106 44 206 86 282 72 130 243 273 429 358 41 19 74 36 74 39 0 9 0 9 -89 -34z"/>
<path d="M5973 4993 c15 -2 37 -2 50 0 12 2 0 4 -28 4 -27 0 -38 -2 -22 -4z"/>
<path d="M5805 4975 c-5 -2 -43 -13 -84 -25 -40 -12 -71 -23 -69 -25 3 -4 166 38 193 49 12 5 -25 6 -40 1z"/>
<path d="M6130 4977 c9 -9 144 -56 149 -52 6 6 -78 41 -119 50 -19 4 -33 5 -30 2z"/>
<path d="M5570 4896 c-249 -104 -373 -208 -414 -345 -26 -89 -17 -93 12 -5 32 97 78 156 164 214 55 36 104 62 278 142 53 25 23 20 -40 -6z"/>
<path d="M6290 4917 c0 -3 19 -17 41 -32 118 -78 193 -184 254 -364 62 -180 67 -192 71 -188 8 8 -78 250 -114 322 -43 86 -83 140 -146 194 -43 37 -106 77 -106 68z"/>
<path d="M5134 4325 c0 -66 1 -92 3 -57 2 34 2 88 0 120 -2 31 -3 3 -3 -63z"/>
<path d="M4821 4348 c-2 -58 27 -260 43 -304 17 -47 19 -36 5 26 -6 25 -19 106 -29 180 -10 74 -19 118 -19 98z"/>
<path d="M5828 4311 c-171 -67 -170 -196 2 -275 30 -14 62 -26 70 -25 8 0 -12 11 -45 25 -84 36 -122 68 -134 111 -20 72 32 130 149 167 25 8 36 15 25 15 -11 0 -41 -8 -67 -18z"/>
<path d="M6323 4323 c20 -2 54 -2 75 0 20 2 3 4 -38 4 -41 0 -58 -2 -37 -4z"/>
<path d="M6884 4285 c-16 -29 -41 -53 -65 -65 -21 -11 -45 -34 -54 -50 -30 -58 -109 -96 -273 -130 -48 -10 -75 -19 -60 -19 53 -2 175 30 246 65 56 27 77 44 95 74 12 22 27 40 34 40 21 0 73 51 94 91 27 54 16 49 -17 -6z"/>
<path d="M6560 4305 c58 -8 99 -10 105 -4 5 5 -4 9 -25 9 -19 0 -66 2 -105 5 -64 4 -61 3 25 -10z"/>
<path d="M5140 4158 c0 -37 32 -192 45 -221 9 -18 13 -24 10 -14 -2 9 -14 68 -26 130 -20 107 -29 139 -29 105z"/>
<path d="M6348 4013 c12 -2 30 -2 40 0 9 3 -1 5 -23 4 -22 0 -30 -2 -17 -4z"/>
<path d="M5958 4003 c23 -2 59 -2 80 0 20 2 1 4 -43 4 -44 0 -61 -2 -37 -4z"/>
<path d="M6133 4003 c32 -2 81 -2 110 0 29 2 3 3 -58 3 -60 0 -84 -1 -52 -3z"/>
<path d="M4880 3987 c0 -31 102 -277 114 -277 7 0 -7 37 -37 97 -13 26 -34 78 -46 116 -13 37 -25 67 -27 67 -2 0 -4 -1 -4 -3z"/>
<path d="M5200 3892 c0 -19 41 -121 50 -127 5 -3 -2 25 -16 62 -26 70 -34 85 -34 65z"/>
<path d="M5260 3745 c0 -12 40 -84 51 -90 5 -4 -1 16 -15 44 -24 46 -36 61 -36 46z"/>
<path d="M5015 3670 c71 -138 289 -377 459 -504 62 -46 234 -141 242 -134 2 3 -22 17 -53 33 -134 65 -274 171 -401 304 -78 81 -197 232 -223 282 -10 21 -24 41 -30 44 -6 4 -3 -7 6 -25z"/>
<path d="M5335 3613 c29 -46 157 -194 163 -189 2 3 -19 31 -48 63 -30 32 -69 79 -88 106 -36 51 -56 65 -27 20z"/>
<path d="M5540 3379 c84 -74 247 -185 257 -176 2 2 -27 23 -64 45 -37 22 -101 68 -140 101 -73 62 -118 86 -53 30z"/>
<path d="M5830 3184 c0 -6 125 -64 137 -64 11 1 -20 18 -82 46 -30 13 -55 21 -55 18z"/>
<path d="M6013 3103 c7 -11 166 -57 173 -50 2 2 -29 14 -70 25 -41 12 -82 25 -92 29 -11 4 -15 2 -11 -4z"/>
<path d="M6738 3053 c36 -7 26 -28 -31 -67 -88 -60 -172 -85 -322 -96 -100 -7 -100 -7 -25 -8 115 -2 218 20 300 64 39 22 80 49 92 61 25 27 18 54 -14 52 l-23 -2 23 -4z"/>
<path d="M6280 3029 c33 -16 324 -16 365 -1 27 11 26 11 -15 5 -57 -8 -294 -8 -340 1 -32 6 -33 5 -10 -5z"/>
<path d="M5750 3016 c29 -18 160 -60 166 -53 3 3 -30 16 -73 30 -43 14 -87 28 -98 32 -14 4 -12 2 5 -9z"/>
<path d="M5990 2939 c36 -16 214 -49 258 -48 20 0 -21 11 -93 24 -71 12 -143 25 -160 29 -29 6 -29 6 -5 -5z"/>
</g>
<g id="layer103" fill="#505050" stroke="none">
<path d="M5782 5348 c-30 -5 -52 -12 -49 -14 2 -2 42 2 88 10 46 8 68 14 49 14 -19 0 -59 -5 -88 -10z"/>
<path d="M6103 5353 c9 -2 25 -2 35 0 9 3 1 5 -18 5 -19 0 -27 -2 -17 -5z"/>
<path d="M6210 5335 c30 -8 60 -14 65 -14 20 2 -71 27 -95 27 -14 0 0 -6 30 -13z"/>
<path d="M6371 5285 c9 -8 79 -35 79 -30 0 2 -16 12 -36 20 -37 15 -51 19 -43 10z"/>
<path d="M5492 5263 c-24 -8 -41 -17 -39 -19 4 -5 97 26 97 32 0 6 -11 4 -58 -13z"/>
<path d="M6500 5227 c0 -2 26 -21 58 -41 31 -20 45 -27 30 -14 -30 26 -88 62 -88 55z"/>
<path d="M5320 5185 c-36 -19 -60 -34 -55 -34 6 0 39 15 75 34 36 19 61 34 55 34 -5 0 -39 -15 -75 -34z"/>
<path d="M6696 5069 c44 -46 98 -110 119 -141 40 -61 62 -81 27 -25 -44 68 -129 170 -177 209 -39 32 -32 23 31 -43z"/>
<path d="M5183 5109 c-35 -22 -46 -37 -15 -20 22 13 58 40 52 41 -3 0 -20 -10 -37 -21z"/>
<path d="M5079 5032 c-66 -55 -135 -134 -167 -191 -35 -62 -20 -49 22 18 20 33 75 96 123 140 47 45 84 81 82 81 -2 0 -29 -22 -60 -48z"/>
<path d="M5762 4961 c-34 -10 -66 -22 -70 -26 -4 -5 1 -5 11 -2 10 4 46 14 80 23 34 9 64 18 66 20 9 8 -25 2 -87 -15z"/>
<path d="M6130 4977 c7 -8 144 -57 147 -53 4 4 -87 41 -127 52 -14 3 -23 4 -20 1z"/>
<path d="M5555 4886 c-66 -32 -53 -33 16 -2 30 14 50 25 44 25 -5 1 -32 -10 -60 -23z"/>
<path d="M6345 4878 c17 -12 51 -41 76 -63 36 -32 35 -29 -8 12 -29 29 -63 57 -76 63 -14 7 -11 3 8 -12z"/>
<path d="M6870 4833 c1 -11 39 -80 40 -72 0 11 -30 79 -35 79 -3 0 -5 -3 -5 -7z"/>
<path d="M5380 4799 l-25 -20 33 16 c17 8 32 18 32 20 0 10 -16 4 -40 -16z"/>
<path d="M5278 4730 c-21 -17 -47 -45 -59 -63 l-21 -32 30 34 c16 19 44 47 63 62 19 16 32 29 29 29 -3 0 -22 -14 -42 -30z"/>
<path d="M4851 4709 c-6 -18 -11 -39 -10 -48 0 -9 7 4 14 29 16 51 13 67 -4 19z"/>
<path d="M6512 4691 c12 -22 24 -38 26 -36 5 4 -37 75 -44 75 -3 0 6 -18 18 -39z"/>
<path d="M6937 4660 c10 -57 10 -213 1 -265 -7 -36 -6 -37 4 -15 16 33 16 266 0 300 -10 22 -11 19 -5 -20z"/>
<path d="M5170 4586 c-14 -38 -32 -108 -28 -112 2 -2 13 28 25 66 20 68 22 94 3 46z"/>
<path d="M6566 4580 c3 -14 11 -32 16 -40 6 -10 7 -7 2 10 -3 14 -11 32 -16 40 -6 10 -7 7 -2 -10z"/>
<path d="M6610 4457 c0 -12 32 -108 35 -105 5 5 -25 108 -31 108 -2 0 -4 -1 -4 -3z"/>
<path d="M5134 4325 c0 -49 1 -71 3 -48 2 23 2 64 0 90 -2 26 -3 8 -3 -42z"/>
<path d="M4822 4310 c0 -19 2 -27 5 -17 2 9 2 25 0 35 -3 9 -5 1 -5 -18z"/>
<path d="M6368 4323 c12 -2 32 -2 45 0 12 2 2 4 -23 4 -25 0 -35 -2 -22 -4z"/>
<path d="M5788 4294 c-39 -21 -35 -28 5 -8 37 19 44 24 31 24 -5 -1 -21 -8 -36 -16z"/>
<path d="M6871 4259 c-13 -17 -38 -37 -57 -45 -19 -8 -34 -19 -34 -24 0 -6 -17 -29 -37 -52 -30 -33 -33 -38 -12 -25 14 10 34 33 45 52 10 19 24 35 31 35 15 0 71 47 84 71 15 28 6 23 -20 -12z"/>
<path d="M5719 4238 c-40 -65 -6 -143 84 -189 20 -11 37 -17 37 -14 0 2 -17 13 -37 24 -84 43 -113 111 -75 176 27 44 19 46 -9 3z"/>
<path d="M4841 4163 c-1 -26 19 -126 25 -121 2 2 -3 35 -10 74 -8 38 -15 59 -15 47z"/>
<path d="M5140 4164 c0 -23 33 -185 37 -181 4 5 -26 179 -33 186 -2 2 -4 0 -4 -5z"/>
<path d="M6590 4059 c-32 -12 -42 -18 -24 -15 31 5 109 35 89 34 -5 0 -35 -9 -65 -19z"/>
<path d="M5938 4003 c12 -2 30 -2 40 0 9 3 -1 5 -23 4 -22 0 -30 -2 -17 -4z"/>
<path d="M6223 4003 c15 -2 37 -2 50 0 12 2 0 4 -28 4 -27 0 -38 -2 -22 -4z"/>
<path d="M4896 3930 c4 -14 13 -38 20 -55 11 -24 13 -25 8 -5 -4 14 -13 39 -20 55 -11 24 -13 25 -8 5z"/>
<path d="M5200 3897 c0 -13 42 -118 46 -115 2 2 -6 29 -17 59 -20 52 -29 70 -29 56z"/>
<path d="M4950 3796 c0 -11 40 -86 45 -86 3 0 -4 19 -16 43 -23 45 -29 54 -29 43z"/>
<path d="M5280 3710 c11 -22 23 -40 25 -40 3 0 -4 18 -15 40 -11 22 -23 40 -25 40 -3 0 4 -18 15 -40z"/>
<path d="M5024 3653 c9 -17 21 -35 27 -39 13 -8 -1 21 -26 51 -15 19 -15 18 -1 -12z"/>
<path d="M5098 3542 c13 -17 28 -35 34 -39 7 -3 2 8 -10 25 -13 17 -28 35 -34 39 -7 3 -2 -8 10 -25z"/>
<path d="M5398 3535 c11 -16 40 -48 63 -70 l43 -40 -48 55 c-68 76 -83 90 -58 55z"/>
<path d="M5564 3366 c26 -26 62 -56 80 -68 43 -29 24 -11 -59 56 -58 48 -62 50 -21 12z"/>
<path d="M5725 3245 c22 -18 86 -53 70 -38 -5 6 -28 20 -50 32 -22 13 -31 15 -20 6z"/>
<path d="M5467 3173 c17 -15 46 -37 65 -47 45 -26 25 -8 -42 38 -40 27 -46 29 -23 9z"/>
<path d="M5900 3150 c19 -11 40 -19 45 -19 6 0 -6 8 -25 19 -19 11 -39 19 -45 19 -5 0 6 -8 25 -19z"/>
<path d="M5570 3105 c0 -2 23 -16 50 -30 28 -14 50 -23 50 -20 0 2 -22 16 -50 30 -27 14 -50 23 -50 20z"/>
<path d="M6065 3086 c17 -7 46 -16 65 -19 30 -6 29 -4 -9 8 -66 22 -90 26 -56 11z"/>
<path d="M6738 3053 c31 -6 27 -27 -10 -58 -18 -15 -24 -22 -13 -17 55 27 71 83 23 81 l-23 -2 23 -4z"/>
<path d="M6358 3023 c12 -2 32 -2 45 0 12 2 2 4 -23 4 -25 0 -35 -2 -22 -4z"/>
<path d="M6528 3023 c12 -2 32 -2 45 0 12 2 2 4 -23 4 -25 0 -35 -2 -22 -4z"/>
<path d="M5785 3000 c22 -11 47 -19 55 -19 17 0 -33 23 -71 33 -13 3 -6 -3 16 -14z"/>
<path d="M6001 2935 c7 -6 147 -35 167 -34 9 1 -21 9 -68 20 -91 19 -106 22 -99 14z"/>
<path d="M6575 2919 c-27 -10 -41 -18 -30 -18 11 0 38 8 60 18 50 24 36 24 -30 0z"/>
<path d="M6398 2883 c12 -2 30 -2 40 0 9 3 -1 5 -23 4 -22 0 -30 -2 -17 -4z"/>
</g>
<g id="layer104" fill="#af3052" stroke="none">
<path d="M5245 6424 c-311 -19 -622 -92 -851 -199 -68 -32 -108 -58 -154 -104 -35 -34 -60 -64 -56 -69 4 -4 71 -6 149 -5 137 2 145 1 227 -30 l84 -31 -104 -21 c-132 -27 -200 -47 -320 -92 -206 -78 -350 -165 -465 -282 -65 -66 -72 -71 -113 -71 -33 0 -48 -6 -67 -26 -29 -32 -37 -40 -69 -69 -14 -13 -26 -34 -26 -47 1 -50 45 -76 165 -98 l70 -13 -120 -18 c-231 -34 -339 -84 -468 -218 -51 -52 -68 -76 -65 -93 3 -23 25 -28 59 -14 11 5 19 -1 27 -18 7 -16 36 -38 74 -57 l63 -32 -140 -28 c-167 -32 -269 -60 -511 -139 -411 -135 -567 -164 -960 -180 -560 -22 -752 -48 -831 -114 -15 -12 -62 -36 -103 -51 -41 -16 -85 -34 -98 -40 l-23 -13 28 -7 c19 -5 23 -9 13 -13 -8 -3 -36 -15 -63 -27 l-47 -21 92 -33 c82 -28 113 -33 258 -42 373 -22 456 -28 479 -37 21 -8 16 -11 -51 -33 l-74 -24 55 -12 c126 -28 177 -33 450 -43 328 -11 601 -28 681 -40 30 -5 98 -20 150 -33 52 -14 138 -33 190 -42 52 -9 102 -19 110 -22 8 -3 -24 -13 -73 -23 -110 -23 -212 -62 -270 -103 -38 -27 -92 -77 -178 -163 -9 -9 -26 -25 -38 -35 -20 -18 -20 -21 -6 -49 21 -41 63 -60 248 -114 370 -108 591 -218 788 -394 42 -37 95 -90 116 -118 47 -59 119 -123 185 -166 26 -17 46 -33 45 -35 -2 -1 -39 -12 -83 -23 -153 -39 -318 -139 -475 -289 -51 -49 -69 -72 -69 -92 0 -50 20 -55 133 -35 72 13 170 20 332 23 l230 4 -32 -26 c-18 -15 -33 -35 -33 -46 0 -23 8 -24 29 -5 22 19 131 36 232 36 128 0 301 -29 949 -159 803 -162 826 -165 1130 -165 187 0 267 4 337 18 347 63 731 248 1018 488 126 105 318 307 398 419 235 329 377 827 377 1325 0 339 -75 769 -180 1034 -166 419 -546 812 -920 950 -41 15 -118 47 -170 70 -253 112 -608 200 -804 200 -31 0 -98 9 -149 21 -176 39 -519 65 -712 53z m623 -754 c149 -11 304 -27 344 -35 219 -45 457 -151 696 -309 193 -127 310 -243 404 -401 52 -87 170 -345 209 -455 32 -91 33 -101 33 -240 -1 -177 -19 -283 -78 -462 -45 -136 -165 -375 -253 -503 -51 -75 -234 -289 -288 -337 -207 -183 -445 -293 -712 -329 -122 -16 -363 -6 -473 20 -47 12 -122 27 -167 36 -107 20 -232 66 -369 135 -280 144 -449 305 -658 628 -37 57 -73 105 -81 108 -7 3 -15 14 -18 25 -6 23 -1 23 165 9 82 -8 136 -7 184 0 38 6 70 12 71 14 2 2 -1 15 -6 28 -9 24 -7 26 29 32 21 3 41 10 44 14 14 23 -109 221 -215 347 -160 189 -264 266 -491 362 -49 21 -88 42 -88 48 0 5 13 47 29 91 54 153 115 222 249 281 31 13 109 51 173 83 64 32 149 68 188 81 39 13 71 27 71 31 0 4 -17 8 -37 8 -46 0 -33 10 48 36 32 10 59 22 59 26 0 20 -268 -3 -335 -28 -15 -6 -14 -1 5 37 39 75 81 131 165 219 45 47 94 106 108 131 34 57 57 79 132 121 165 92 314 143 458 157 123 12 115 12 405 -9z"/>
<path d="M1960 5962 c-71 -69 -78 -102 -30 -127 44 -23 72 -18 126 20 27 19 43 35 35 35 -8 0 6 15 31 33 l46 32 -26 20 c-81 63 -106 61 -182 -13z"/>
<path d="M2677 5648 c-51 -14 -167 -127 -167 -163 0 -67 50 -95 167 -95 69 0 85 4 133 31 30 18 69 39 85 47 25 14 27 17 11 20 -16 3 -15 7 10 24 16 10 40 24 54 30 18 8 21 12 10 15 -8 3 -26 16 -40 28 -14 13 -47 34 -75 49 -54 28 -117 33 -188 14z"/>
<path d="M154 4286 c-77 -78 -81 -100 -24 -139 44 -30 68 -22 141 52 38 37 69 73 69 78 0 6 -13 25 -29 42 -47 51 -79 44 -157 -33z"/>
<path d="M1687 3666 c-44 -16 -67 -34 -67 -51 0 -7 -16 -22 -35 -34 -29 -17 -35 -26 -35 -54 0 -20 7 -41 18 -50 37 -33 179 -16 284 35 50 24 58 35 31 40 -10 2 3 13 35 28 28 14 51 27 51 30 0 3 -26 17 -57 33 -70 33 -169 44 -225 23z"/>
</g>
<g id="layer105" fill="#717171" stroke="none">
<path d="M6180 4955 c46 -18 64 -17 25 0 -16 8 -37 14 -45 14 -8 0 1 -7 20 -14z"/>
<path d="M6390 4847 c0 -2 15 -16 33 -33 l32 -29 -29 33 c-28 30 -36 37 -36 29z"/>
<path d="M6932 4690 c0 -8 4 -26 8 -40 6 -20 8 -21 8 -5 0 11 -3 29 -8 40 -5 12 -8 14 -8 5z"/>
<path d="M6952 4470 c0 -19 2 -27 5 -17 2 9 2 25 0 35 -3 9 -5 1 -5 -18z"/>
<path d="M6626 4400 c3 -14 11 -32 16 -40 6 -10 7 -7 2 10 -3 14 -11 32 -16 40 -6 10 -7 7 -2 -10z"/>
<path d="M5133 4325 c0 -38 2 -53 4 -32 2 20 2 52 0 70 -2 17 -4 1 -4 -38z"/>
<path d="M5983 4333 c37 -2 97 -2 135 0 37 2 6 3 -68 3 -74 0 -105 -1 -67 -3z"/>
<path d="M6869 4253 c-8 -9 -27 -24 -44 -35 -16 -10 -24 -18 -17 -18 12 0 93 69 81 70 -4 0 -13 -7 -20 -17z"/>
<path d="M5702 4180 c0 -19 2 -27 5 -17 2 9 2 25 0 35 -3 9 -5 1 -5 -18z"/>
<path d="M5275 3720 c9 -16 18 -30 21 -30 2 0 -2 14 -11 30 -9 17 -18 30 -21 30 -2 0 2 -13 11 -30z"/>
<path d="M5100 3540 c12 -16 24 -30 26 -30 3 0 -4 14 -16 30 -12 17 -24 30 -26 30 -3 0 4 -13 16 -30z"/>
<path d="M5440 3487 c0 -2 15 -16 33 -33 l32 -29 -29 33 c-28 30 -36 37 -36 29z"/>
<path d="M5270 3345 c47 -47 87 -85 90 -85 2 0 -33 38 -80 85 -47 47 -87 85 -90 85 -2 0 33 -38 80 -85z"/>
<path d="M5520 3407 c0 -2 15 -16 33 -33 l32 -29 -29 33 c-28 30 -36 37 -36 29z"/>
<path d="M5450 3186 c0 -2 14 -14 30 -26 17 -12 30 -19 30 -16 0 2 -13 14 -30 26 -16 12 -30 19 -30 16z"/>
<path d="M6115 3070 c11 -5 27 -9 35 -9 9 0 8 4 -5 9 -11 5 -27 9 -35 9 -9 0 -8 -4 5 -9z"/>
<path d="M6738 3053 c28 -6 28 -20 0 -52 -22 -26 -22 -26 6 1 33 30 30 59 -6 57 l-23 -2 23 -4z"/>
<path d="M5780 3002 c8 -5 26 -13 40 -16 17 -5 20 -4 10 2 -8 5 -26 13 -40 16 -17 5 -20 4 -10 -2z"/>
</g>
<g id="layer106" fill="#ff4816" stroke="none">
<path d="M5170 6354 c-282 -17 -581 -85 -814 -185 -49 -21 -93 -36 -98 -33 -4 3 -8 -1 -8 -8 0 -8 -13 -22 -30 -31 -71 -42 -16 -60 150 -51 104 6 106 6 200 -31 52 -20 121 -47 153 -59 l58 -22 -123 -13 c-297 -29 -620 -137 -829 -278 -73 -50 -155 -129 -178 -171 -10 -18 -20 -22 -65 -22 -42 0 -58 -5 -80 -25 -48 -44 -23 -105 52 -124 20 -5 75 -19 121 -30 46 -12 105 -31 130 -43 l46 -22 -125 -8 c-344 -21 -539 -84 -640 -206 -46 -56 -30 -94 30 -68 10 4 20 -3 31 -21 10 -18 44 -42 97 -68 45 -22 82 -43 82 -46 0 -18 -37 -29 -170 -54 -203 -37 -352 -76 -579 -150 -476 -155 -570 -171 -1171 -195 -260 -10 -478 -36 -559 -65 -25 -8 -59 -27 -77 -40 -18 -14 -64 -36 -102 -50 -135 -49 -135 -47 -29 -84 80 -28 112 -33 252 -41 88 -6 230 -15 315 -20 85 -6 171 -11 190 -11 31 0 26 -3 -40 -29 -41 -16 -84 -29 -95 -30 -21 -2 60 -22 154 -40 30 -5 181 -14 335 -20 528 -18 685 -31 804 -66 46 -13 197 -44 335 -69 138 -25 253 -48 256 -50 2 -3 -22 -5 -55 -5 -73 0 -264 -23 -359 -44 -156 -34 -244 -76 -334 -162 -31 -29 -64 -60 -74 -69 -16 -14 -16 -18 -2 -45 21 -40 65 -61 234 -110 384 -111 603 -220 807 -402 40 -34 94 -90 122 -124 64 -78 158 -152 263 -209 l84 -45 -52 0 c-150 0 -313 -44 -438 -116 -44 -25 -85 -47 -92 -47 -7 0 -10 -4 -7 -8 5 -9 -36 -35 -48 -31 -5 1 -7 -2 -5 -7 1 -4 -24 -30 -55 -56 -45 -37 -58 -54 -58 -75 0 -51 20 -56 133 -36 73 14 168 20 332 23 l230 4 -32 -26 c-18 -15 -33 -35 -33 -46 0 -22 13 -25 29 -5 15 18 149 39 236 38 142 -3 268 -24 980 -167 314 -63 633 -123 710 -135 264 -38 568 -36 770 5 203 42 513 169 714 294 177 109 354 258 475 396 35 40 67 72 70 69 3 -2 4 -1 1 2 -8 11 36 65 47 58 6 -4 8 -2 4 4 -3 6 12 39 35 74 202 311 329 795 329 1258 0 254 -53 627 -124 870 -104 359 -335 686 -658 937 -57 44 -280 165 -328 178 -14 4 -75 28 -136 55 -274 120 -627 210 -825 210 -30 0 -108 11 -174 24 -66 14 -163 30 -215 35 -110 12 -385 20 -480 15z m745 -684 c205 -14 282 -26 408 -61 205 -57 367 -136 607 -295 222 -146 325 -265 450 -517 139 -279 180 -407 180 -557 -1 -187 -53 -439 -125 -597 -42 -92 -166 -316 -213 -383 -104 -150 -351 -418 -373 -404 -7 4 -10 3 -6 -3 9 -14 -19 -37 -34 -27 -8 4 -9 3 -5 -4 11 -18 -117 -106 -249 -172 -126 -63 -247 -100 -393 -121 -120 -17 -372 -6 -487 21 -49 11 -126 28 -170 36 -106 21 -246 73 -374 141 -276 144 -432 295 -645 620 -37 57 -74 107 -82 111 -9 5 -18 27 -21 49 -8 61 10 67 165 58 69 -3 134 -9 146 -11 23 -4 176 13 184 21 7 7 -62 138 -109 207 -53 78 -172 218 -251 295 -68 68 -199 146 -350 210 -49 21 -88 42 -88 48 1 29 62 179 93 226 65 100 170 186 275 225 26 10 72 32 102 50 65 37 174 85 248 109 29 10 55 21 58 26 13 21 -265 -2 -331 -27 -15 -6 -14 -1 5 37 38 75 80 131 165 219 45 47 98 113 119 147 52 87 117 141 248 206 141 70 173 82 253 102 142 36 261 39 600 15z"/>
<path d="M1931 5933 c-42 -33 -43 -76 -1 -98 43 -22 69 -19 121 17 l47 32 -35 28 c-20 15 -36 28 -37 28 -1 0 -15 4 -32 9 -26 7 -36 5 -63 -16z"/>
<path d="M2607 5578 c-47 -13 -97 -61 -97 -94 0 -64 51 -94 160 -94 77 0 115 12 190 61 l48 31 -31 28 c-82 71 -173 94 -270 68z"/>
<path d="M119 4251 c-35 -35 -37 -63 -7 -91 47 -43 99 -35 141 21 18 25 18 28 3 51 -35 53 -94 61 -137 19z"/>
<path d="M1617 3596 c-20 -7 -44 -19 -52 -26 -21 -17 -19 -73 3 -93 23 -21 106 -22 182 -2 55 14 149 56 149 65 0 3 -26 17 -57 33 -70 33 -169 44 -225 23z"/>
</g>
<g id="layer107" fill="#909090" stroke="none">
<path d="M5968 5363 c17 -2 47 -2 65 0 17 2 3 4 -33 4 -36 0 -50 -2 -32 -4z"/>
<path d="M5133 4325 c0 -27 2 -38 4 -22 2 15 2 37 0 50 -2 12 -4 0 -4 -28z"/>
<path d="M6088 4333 c17 -2 47 -2 65 0 17 2 3 4 -33 4 -36 0 -50 -2 -32 -4z"/>
<path d="M5190 3427 c0 -2 15 -16 33 -33 l32 -29 -29 33 c-28 30 -36 37 -36 29z"/>
</g>


</svg>